# This file uses centimeters as units for non-parametric coordinates.

mtllib EyeBrow2.mtl
g default
v -12.879391 86.817881 33.337189
v -12.303090 87.670489 33.337189
v -11.795930 85.788696 33.337189
v -11.795930 85.788696 35.808312
v -12.303090 87.670489 35.808312
v -12.879391 86.817881 35.808312
v -28.764561 90.035167 33.337189
v -26.629651 92.214368 33.337189
v -26.650092 91.185447 33.337189
v -26.650092 91.185447 35.808312
v -26.629651 92.214368 35.808312
v -28.764561 90.035167 35.808312
v -14.959112 91.085262 33.337189
v -14.959112 91.085262 35.808312
v -18.548045 92.837870 33.337189
v -18.548033 92.837883 35.808312
v -22.649291 91.031346 33.337189
v -21.848114 93.175540 33.337189
v -19.326055 90.384837 33.337189
v -21.848114 93.175540 35.808312
v -19.326055 90.384837 35.808312
v -22.649291 91.031346 35.808312
v -13.648517 87.331296 33.337189
v -16.237673 88.997806 33.337189
v -19.326048 90.384834 33.337189
v -16.237673 88.997806 35.808312
v -13.648517 87.331296 35.808312
v -19.326048 90.384834 35.808312
v -25.224580 91.539371 33.337189
v -25.224580 91.539371 35.808312
v -12.756550 88.598566 35.808312
v -24.911051 93.058630 35.808312
v -12.756550 88.598566 33.337189
v -24.911051 93.058630 33.337189
v 12.879391 86.817902 33.337189
v 12.303089 87.670484 33.337189
v 11.795930 85.788701 33.337189
v 11.795930 85.788701 35.808312
v 12.303089 87.670484 35.808312
v 12.879391 86.817902 35.808312
v 28.764559 90.035168 33.337189
v 26.629658 92.214360 33.337189
v 26.650093 91.185441 33.337189
v 26.650093 91.185441 35.808312
v 26.629658 92.214360 35.808312
v 28.764559 90.035168 35.808312
v 14.959114 91.085255 33.337189
v 14.959114 91.085255 35.808312
v 18.548044 92.837872 33.337189
v 18.548036 92.837875 35.808312
v 22.649295 91.031341 33.337189
v 21.848115 93.175541 33.337189
v 19.326059 90.384832 33.337189
v 21.848115 93.175541 35.808312
v 19.326059 90.384832 35.808312
v 22.649295 91.031341 35.808312
v 13.648516 87.331296 33.337189
v 16.237677 88.997813 33.337189
v 19.326052 90.384834 33.337189
v 16.237677 88.997813 35.808312
v 13.648516 87.331296 35.808312
v 19.326052 90.384834 35.808312
v 25.224582 91.539367 33.337189
v 25.224582 91.539367 35.808312
v 12.756555 88.598564 35.808312
v 24.911051 93.058625 35.808312
v 12.756555 88.598564 33.337189
v 24.911051 93.058625 33.337189
vt 0.482497 0.187451
vt 0.480890 0.073090
vt 0.573525 0.071789
vt 0.575131 0.186150
vt 0.479882 0.001311
vt 0.572516 0.000010
vt 0.726088 0.985113
vt 0.633444 0.985068
vt 0.633479 0.912002
vt 0.726123 0.912047
vt 0.633498 0.873277
vt 0.726142 0.873321
vt 0.633558 0.748737
vt 0.726202 0.748782
vt 0.633630 0.599000
vt 0.726274 0.599045
vt 0.470265 0.776268
vt 0.467040 0.720336
vt 0.559530 0.715002
vt 0.562755 0.770934
vt 0.465043 0.685725
vt 0.557533 0.680391
vt 0.458397 0.570478
vt 0.550887 0.565144
vt 0.451089 0.443763
vt 0.543579 0.438429
vt 0.813036 0.409153
vt 0.814325 0.259421
vt 0.906966 0.260219
vt 0.905676 0.409950
vt 0.815396 0.135058
vt 0.908037 0.135856
vt 0.904603 0.534485
vt 0.811963 0.533687
vt 0.816386 0.020147
vt 0.909026 0.020945
vt 0.811630 0.572411
vt 0.904270 0.573209
vt 0.811000 0.645475
vt 0.903641 0.646273
vt 0.270185 0.893784
vt 0.177556 0.892095
vt 0.178578 0.836080
vt 0.271206 0.837769
vt 0.179210 0.801416
vt 0.271839 0.803106
vt 0.181316 0.685998
vt 0.273944 0.687687
vt 0.183627 0.559090
vt 0.276262 0.560783
vt 0.183619 0.559093
vt 0.185946 0.432185
vt 0.278575 0.433875
vt 0.276266 0.560786
vt 0.187742 0.333795
vt 0.280370 0.335485
vt 0.188746 0.278738
vt 0.281375 0.280429
vt 0.190393 0.188510
vt 0.283021 0.190200
vt 0.087068 0.352917
vt 0.179704 0.354112
vt 0.178100 0.478469
vt 0.085464 0.477274
vt 0.176617 0.593374
vt 0.083981 0.592179
vt 0.175691 0.665155
vt 0.083055 0.663960
vt 0.174216 0.779517
vt 0.081580 0.778322
vt 0.907265 0.535014
vt 0.907209 0.479948
vt 0.999853 0.479854
vt 0.999909 0.534920
vt 0.999753 0.381445
vt 0.907109 0.381539
vt 0.907356 0.625257
vt 1.000000 0.625163
vt 0.999623 0.254514
vt 0.999626 0.254519
vt 0.906977 0.254610
vt 0.906983 0.254605
vt 0.300212 0.743062
vt 0.337214 0.753991
vt 0.275716 0.793447
vt 0.309840 0.709756
vt 0.365238 0.727265
vt 0.429132 0.620365
vt 0.340041 0.598339
vt 0.451071 0.472242
vt 0.354594 0.472247
vt 0.354592 0.472239
vt 0.340041 0.346150
vt 0.425747 0.350483
vt 0.329013 0.248360
vt 0.386859 0.242348
vt 0.337213 0.190498
vt 0.300211 0.201427
vt 0.235142 0.138898
vt 0.812443 0.655368
vt 0.749923 0.617552
vt 0.786623 0.605648
vt 0.721201 0.591577
vt 0.776117 0.572609
vt 0.654501 0.486405
vt 0.742980 0.462032
vt 0.628645 0.338917
vt 0.725097 0.336369
vt 0.725105 0.336372
vt 0.650760 0.216531
vt 0.736322 0.209942
vt 0.686786 0.107410
vt 0.744771 0.111896
vt 0.735050 0.054270
vt 0.772327 0.064221
vt 0.835727 0.000000
vt 0.293800 0.151721
vt 0.244740 0.124667
vt 0.317736 0.121462
vt 0.320864 0.173387
vt 0.356041 0.127149
vt 0.469871 0.177675
vt 0.409764 0.247022
vt 0.573180 0.286066
vt 0.494339 0.341671
vt 0.494330 0.341670
vt 0.555105 0.453104
vt 0.622650 0.400171
vt 0.602449 0.539377
vt 0.653188 0.510954
vt 0.642496 0.581939
vt 0.605958 0.594331
vt 0.588817 0.682932
vt 0.408448 0.003211
vt 0.359388 0.030266
vt 0.335451 0.000008
vt 0.332325 0.051933
vt 0.297146 0.005696
vt 0.243426 0.125574
vt 0.183318 0.056225
vt 0.158859 0.220219
vt 0.158858 0.220227
vt 0.080016 0.164616
vt 0.098083 0.331657
vt 0.030539 0.278722
vt 0.050738 0.417930
vt 0.000000 0.389505
vt 0.047229 0.472883
vt 0.010691 0.460491
vt 0.064368 0.561484
vn -0.000000 0.000000 -1.000000
vn -0.000000 0.000000 -1.000000
vn -0.000000 0.000000 -1.000000
vn -0.000000 0.000000 1.000000
vn -0.000000 0.000000 1.000000
vn -0.000000 0.000000 1.000000
vn -0.000000 0.000000 -1.000000
vn -0.000000 0.000000 -1.000000
vn -0.000000 0.000000 -1.000000
vn 0.000000 -0.000000 1.000000
vn 0.000000 -0.000000 1.000000
vn 0.000000 0.000000 1.000000
vn 0.965548 0.260224 0.000000
vn 0.946231 0.323491 0.000000
vn 0.946231 0.323491 0.000000
vn 0.965548 0.260224 0.000000
vn 0.789342 0.613953 0.000000
vn 0.789342 0.613953 0.000000
vn 0.590658 0.806922 0.000000
vn 0.590658 0.806922 0.000000
vn 0.290351 0.956920 -0.000003
vn 0.290351 0.956920 -0.000003
vn -0.000000 0.000000 -1.000000
vn -0.000000 0.000000 -1.000000
vn -0.000000 0.000000 -1.000000
vn -0.000000 0.000000 -1.000000
vn 0.034672 0.999399 -0.000003
vn 0.034672 0.999399 -0.000003
vn -0.000000 0.000000 1.000000
vn -0.000000 0.000000 1.000000
vn -0.000000 0.000000 1.000000
vn 0.000000 -0.000000 1.000000
vn -0.197075 0.980388 0.000000
vn -0.197075 0.980388 0.000000
vn -0.617279 0.786744 0.000000
vn -0.617279 0.786744 0.000000
vn -0.714329 0.699810 0.000000
vn -0.714329 0.699810 0.000000
vn 0.000000 -0.000000 -1.000000
vn 0.000000 -0.000000 -1.000000
vn 0.000000 -0.000000 -1.000000
vn 0.000000 -0.000000 -1.000000
vn -0.000000 0.000000 -1.000000
vn 0.000000 -0.000000 1.000000
vn 0.000000 -0.000000 1.000000
vn 0.000000 -0.000000 1.000000
vn 0.000000 -0.000000 1.000000
vn 0.000000 0.000000 1.000000
vn 0.000000 -0.000000 -1.000000
vn 0.000000 -0.000000 -1.000000
vn 0.000000 -0.000000 1.000000
vn 0.000000 -0.000000 1.000000
vn -0.688713 -0.725034 0.000000
vn -0.688713 -0.725034 0.000000
vn -0.639885 -0.768471 0.000000
vn -0.639885 -0.768471 0.000000
vn -0.544469 -0.838781 0.000000
vn -0.544469 -0.838781 0.000000
vn -0.473668 -0.880704 0.000000
vn -0.473668 -0.880704 0.000000
vn 0.391077 -0.920358 0.000000
vn 0.391077 -0.920358 0.000000
vn -0.038489 -0.999259 0.000000
vn -0.038489 -0.999259 0.000000
vn -0.302323 -0.953206 -0.000002
vn -0.302323 -0.953206 -0.000002
vn -0.190962 -0.981597 -0.000003
vn -0.192088 -0.981378 -0.000002
vn -0.192088 -0.981378 -0.000002
vn -0.190962 -0.981597 -0.000003
vn 0.477870 -0.878431 0.000000
vn 0.477870 -0.878431 0.000000
vn 0.000000 -0.000000 -1.000000
vn 0.000000 -0.000000 -1.000000
vn 0.000000 -0.000000 -1.000000
vn 0.000000 -0.000000 1.000000
vn 0.000000 -0.000000 1.000000
vn 0.000000 -0.000000 1.000000
vn -0.000000 0.000000 -1.000000
vn 0.000000 -0.000000 -1.000000
vn 0.000000 -0.000000 -1.000000
vn 0.000000 -0.000000 1.000000
vn 0.000000 0.000000 1.000000
vn 0.000000 -0.000000 1.000000
vn -0.965548 0.260225 0.000000
vn -0.965548 0.260225 0.000000
vn -0.946231 0.323493 0.000000
vn -0.946231 0.323493 0.000000
vn -0.789342 0.613954 0.000000
vn -0.590659 0.806922 0.000000
vn -0.590659 0.806922 0.000000
vn -0.789342 0.613954 0.000000
vn -0.290352 0.956920 -0.000002
vn -0.290352 0.956920 -0.000002
vn -0.000000 0.000000 -1.000000
vn -0.000000 0.000000 -1.000000
vn -0.000000 0.000000 -1.000000
vn -0.000000 0.000000 -1.000000
vn -0.034672 0.999399 -0.000002
vn -0.034672 0.999399 -0.000002
vn 0.000000 0.000000 1.000000
vn -0.000000 0.000000 1.000000
vn -0.000000 0.000000 1.000000
vn 0.000000 0.000000 1.000000
vn 0.197077 0.980388 0.000000
vn 0.617279 0.786745 0.000000
vn 0.617279 0.786745 0.000000
vn 0.197077 0.980388 0.000000
vn 0.714329 0.699810 0.000000
vn 0.714329 0.699810 0.000000
vn -0.000000 0.000000 -1.000000
vn -0.000000 0.000000 -1.000000
vn -0.000000 0.000000 -1.000000
vn -0.000000 0.000000 -1.000000
vn -0.000000 0.000000 -1.000000
vn -0.000000 0.000000 1.000000
vn -0.000000 0.000000 1.000000
vn -0.000000 0.000000 1.000000
vn -0.000000 0.000000 1.000000
vn 0.000000 0.000000 1.000000
vn -0.000000 0.000000 -1.000000
vn -0.000000 0.000000 -1.000000
vn 0.000000 -0.000000 1.000000
vn -0.000000 0.000000 1.000000
vn 0.688718 -0.725029 0.000000
vn 0.639884 -0.768472 0.000000
vn 0.639884 -0.768472 0.000000
vn 0.688718 -0.725029 0.000000
vn 0.544466 -0.838783 0.000000
vn 0.473667 -0.880704 0.000000
vn 0.473667 -0.880704 0.000000
vn 0.544466 -0.838783 0.000000
vn -0.391077 -0.920358 0.000000
vn 0.038489 -0.999259 0.000000
vn 0.038489 -0.999259 0.000000
vn -0.391077 -0.920358 0.000000
vn 0.302322 -0.953206 -0.000000
vn 0.190961 -0.981598 -0.000001
vn 0.192087 -0.981378 -0.000000
vn 0.192087 -0.981378 -0.000000
vn 0.190961 -0.981598 -0.000001
vn 0.302322 -0.953206 -0.000000
vn -0.477868 -0.878432 0.000000
vn -0.477868 -0.878432 0.000000
s 1
g Eyebrow2
usemtl HairMatSG
f 1/83/1 2/84/2 3/85/3
s 2
f 4/100/4 5/101/5 6/102/6
s 1
f 7/99/7 8/97/8 9/98/9
s 2
f 10/115/10 11/114/11 12/116/12
s 5
f 3/39/13 2/37/14 5/38/15 4/40/16
f 31/33/17 33/34/18 13/27/19 14/30/20
f 13/27/19 15/28/21 16/29/22 14/30/20
s 1
f 17/93/23 18/94/24 15/90/25 19/92/26
s 5
f 15/28/21 18/31/27 20/32/28 16/29/22
s 2
f 21/108/29 16/107/30 20/110/31 22/111/32
s 5
f 32/5/33 34/6/34 8/3/35 11/2/36
f 12/1/37 11/2/36 8/3/35 7/4/38
s 1
f 23/86/39 33/87/40 2/84/2 1/83/1
f 15/90/25 13/88/41 24/89/42 25/91/43 19/92/26
s 2
f 27/104/44 31/103/45 14/105/46 26/106/47
f 14/105/46 16/107/30 21/108/29 28/109/48 26/106/47
s 1
f 29/95/49 34/96/50 18/94/24 17/93/23
s 2
f 30/113/51 32/112/52 11/114/11 10/115/10
s 8
f 3/41/53 4/42/54 6/43/55 1/44/56
f 23/46/57 27/45/58 26/47/59 24/48/60
f 10/57/61 9/58/62 29/56/63 30/55/64
f 25/50/65 28/49/66 21/51/67 22/52/68 17/53/69 19/54/70
f 24/48/60 26/47/59 28/49/66 25/50/65
f 17/53/69 22/52/68 30/55/64 29/56/63
f 1/44/56 6/43/55 27/45/58 23/46/57
f 12/59/71 7/60/72 9/58/62 10/57/61
s 2
f 5/101/5 31/103/45 27/104/44 6/102/6
f 20/110/31 32/112/52 30/113/51 22/111/32
s 5
f 2/37/14 33/34/18 31/33/17 5/38/15
f 18/31/27 34/35/34 32/36/33 20/32/28
s 1
f 13/88/41 33/87/40 23/86/39 24/89/42
f 8/97/8 34/96/50 29/95/49 9/98/9
s 10
f 35/117/73 37/118/74 36/119/75
s 11
f 38/134/76 40/135/77 39/136/78
s 10
f 41/133/79 43/132/80 42/131/81
s 11
f 44/148/82 46/150/83 45/149/84
s 14
f 37/7/85 38/8/86 39/9/87 36/10/88
f 65/11/89 48/13/90 47/14/91 67/12/92
f 47/14/91 48/13/90 50/15/93 49/16/94
s 10
f 51/127/95 53/125/96 49/124/97 52/128/98
s 14
f 49/61/94 50/62/93 54/63/99 52/64/100
s 11
f 55/142/101 56/144/102 54/145/103 50/143/104
s 14
f 66/65/105 45/67/106 42/68/107 68/66/108
f 46/69/109 41/70/110 42/68/107 45/67/106
s 10
f 57/120/111 35/117/73 36/119/75 67/121/112
f 49/124/97 53/125/96 59/126/113 58/123/114 47/122/115
s 11
f 61/137/116 60/139/117 48/140/118 65/138/119
f 48/140/118 60/139/117 62/141/120 55/142/101 50/143/104
s 10
f 63/129/121 51/127/95 52/128/98 68/130/122
s 11
f 64/146/123 44/148/82 45/149/84 66/147/124
s 19
f 37/17/125 35/18/126 40/19/127 38/20/128
f 57/21/129 58/23/130 60/24/131 61/22/132
f 44/71/133 64/72/134 63/73/135 43/74/136
f 59/79/137 53/80/138 51/75/139 56/76/140 55/81/141 62/82/142
f 58/23/130 59/25/137 62/26/142 60/24/131
f 51/75/139 63/73/135 64/72/134 56/76/140
f 35/18/126 57/21/129 61/22/132 40/19/127
f 46/77/143 44/71/133 43/74/136 41/78/144
s 11
f 39/136/78 40/135/77 61/137/116 65/138/119
f 54/145/103 56/144/102 64/146/123 66/147/124
s 14
f 36/10/88 39/9/87 65/11/89 67/12/92
f 52/64/100 54/63/99 66/65/105 68/66/108
s 10
f 47/122/115 58/123/114 57/120/111 67/121/112
f 42/131/81 43/132/80 63/129/121 68/130/122
