# This file uses centimeters as units for non-parametric coordinates.

mtllib Mouth.mtl
g default
v -12.318842 70.633744 31.888409
v -12.816095 68.950593 31.888409
v -14.610759 71.748155 31.888409
v -14.610761 71.748155 34.359531
v -12.816095 68.950593 34.359531
v -12.318842 70.633744 34.359531
v 14.610770 71.748185 31.888407
v 12.816100 68.950593 31.888407
v 12.318838 70.633744 31.888407
v 12.318838 70.633744 34.359530
v 12.816100 68.950593 34.359530
v 14.610768 71.748185 34.359529
v -6.737821 64.768907 31.888409
v -6.737821 64.768907 34.359531
v 0.000001 63.770249 31.888408
v 0.000001 63.770249 34.359530
v 5.735633 68.821519 31.888408
v 6.737823 64.768907 31.888408
v 0.000001 68.159089 31.888408
v 6.737823 64.768907 34.359530
v 0.000001 68.159089 34.359530
v 5.735633 68.821519 34.359530
v -10.803826 70.195695 31.888409
v -5.735632 68.821488 31.888409
v 0.000001 68.159089 31.888408
v -5.735632 68.821488 34.359531
v -10.803826 70.195695 34.359531
v 0.000001 68.159089 34.359530
v 10.803828 70.195710 31.888408
v 10.803828 70.195710 34.359530
v -11.600441 67.675736 34.359531
v 11.600444 67.675736 34.359530
v -11.600441 67.675736 31.888409
v 11.600444 67.675736 31.888408
vt 0.486847 0.694313
vt 0.483426 0.500632
vt 0.553691 0.499391
vt 0.557113 0.693072
vt 0.480005 0.306952
vt 0.550270 0.305710
vt 0.559958 0.854161
vt 0.489693 0.855402
vt 0.477159 0.145863
vt 0.547425 0.144622
vt 0.490577 0.905491
vt 0.560843 0.904250
vt 0.476275 0.095774
vt 0.546540 0.094533
vt 0.492247 1.000000
vt 0.562512 0.998759
vt 0.544871 0.000023
vt 0.474605 0.001264
vt 0.631170 0.862390
vt 0.560897 0.861717
vt 0.561591 0.789244
vt 0.631864 0.789917
vt 0.562020 0.744396
vt 0.632294 0.745068
vt 0.563450 0.595063
vt 0.633723 0.595736
vt 0.565019 0.430873
vt 0.635298 0.431543
vt 0.565013 0.430871
vt 0.566592 0.266681
vt 0.636866 0.267353
vt 0.635300 0.431540
vt 0.568021 0.117345
vt 0.638294 0.118017
vt 0.568450 0.072497
vt 0.638723 0.073169
vt 0.569143 0.000022
vt 0.639416 0.000695
vt 0.283379 0.765864
vt 0.331246 0.780005
vt 0.251687 0.831045
vt 0.295836 0.722778
vt 0.367501 0.745432
vt 0.450167 0.607143
vt 0.334915 0.578643
vt 0.478568 0.415527
vt 0.353751 0.415529
vt 0.353753 0.415523
vt 0.334914 0.252407
vt 0.450166 0.223907
vt 0.295834 0.108271
vt 0.367500 0.085617
vt 0.331245 0.051044
vt 0.283378 0.065186
vt 0.251685 0.000005
vt 0.201535 0.829536
vt 0.125182 0.773814
vt 0.173812 0.762571
vt 0.091067 0.737128
vt 0.163963 0.718815
vt 0.016848 0.594127
vt 0.133601 0.572593
vt 0.000000 0.401150
vt 0.124586 0.408643
vt 0.124591 0.408638
vt 0.039851 0.211582
vt 0.153185 0.246950
vt 0.130670 0.078505
vt 0.200847 0.105421
vt 0.168935 0.046171
vt 0.215868 0.063161
vt 0.251416 0.000000
vn -0.000000 0.000000 -1.000000
vn -0.000000 0.000000 -1.000000
vn -0.000000 0.000000 -1.000000
vn -0.000000 0.000000 1.000000
vn 0.000000 -0.000000 1.000000
vn 0.000000 -0.000000 1.000000
vn 0.000000 0.000000 -1.000000
vn -0.000000 -0.000000 -1.000000
vn -0.000000 -0.000000 -1.000000
vn 0.000000 0.000000 1.000000
vn 0.000000 0.000000 1.000000
vn 0.000000 0.000000 1.000000
vn -0.841694 -0.539955 -0.000000
vn -0.804151 -0.594426 -0.000000
vn -0.804151 -0.594426 -0.000000
vn -0.841694 -0.539955 -0.000000
vn -0.566793 -0.823860 0.000000
vn -0.566793 -0.823860 0.000000
vn -0.319070 -0.947731 0.000000
vn -0.319070 -0.947731 0.000000
vn 0.000000 -1.000000 -0.000001
vn -0.000000 -1.000000 -0.000001
vn -0.000000 -0.000000 -1.000000
vn -0.000000 -0.000000 -1.000000
vn -0.000000 -0.000000 -1.000000
vn -0.000000 -0.000000 -1.000000
vn 0.319070 -0.947731 -0.000001
vn 0.319070 -0.947731 -0.000001
vn 0.000000 -0.000000 1.000000
vn 0.000000 -0.000000 1.000000
vn 0.000000 0.000000 1.000000
vn 0.000000 0.000000 1.000000
vn 0.566793 -0.823860 0.000000
vn 0.566793 -0.823860 0.000000
vn 0.804152 -0.594423 0.000000
vn 0.804152 -0.594423 0.000000
vn 0.841696 -0.539952 0.000000
vn 0.841696 -0.539952 0.000000
vn -0.000000 0.000000 -1.000000
vn -0.000000 0.000000 -1.000000
vn -0.000000 0.000000 -1.000000
vn -0.000000 0.000000 -1.000000
vn -0.000000 0.000000 -1.000000
vn 0.000000 -0.000000 1.000000
vn 0.000000 0.000000 1.000000
vn 0.000000 -0.000000 1.000000
vn 0.000000 -0.000000 1.000000
vn 0.000000 -0.000000 1.000000
vn -0.000000 -0.000000 -1.000000
vn -0.000000 0.000000 -1.000000
vn 0.000000 0.000000 1.000000
vn 0.000000 0.000000 1.000000
vn 0.437283 0.899324 0.000000
vn 0.437283 0.899324 0.000000
vn 0.377607 0.925966 0.000000
vn 0.377607 0.925966 0.000000
vn 0.265412 0.964135 0.000000
vn 0.265412 0.964135 0.000000
vn 0.185245 0.982692 0.000000
vn 0.185245 0.982692 0.000000
vn -0.377610 0.925965 0.000000
vn -0.377610 0.925965 0.000000
vn -0.265408 0.964136 0.000000
vn -0.265408 0.964136 0.000000
vn -0.000003 1.000000 0.000001
vn -0.000003 1.000000 0.000001
vn -0.114731 0.993397 0.000001
vn -0.185247 0.982692 0.000001
vn -0.185247 0.982692 0.000001
vn -0.114731 0.993397 0.000001
vn -0.437290 0.899320 0.000000
vn -0.437291 0.899320 0.000000
s 1
g Mouth
usemtl Mouth_MatSG
f 1/39/1 2/40/2 3/41/3
s 2
f 4/56/4 5/57/5 6/58/6
s 1
f 7/55/7 8/53/8 9/54/9
s 2
f 10/71/10 11/70/11 12/72/12
s 5
f 3/15/13 2/11/14 5/12/15 4/16/16
f 31/7/17 33/8/18 13/1/19 14/4/20
f 13/1/19 15/2/21 16/3/22 14/4/20
s 1
f 17/49/23 18/50/24 15/46/25 19/48/26
s 5
f 15/2/21 18/5/27 20/6/28 16/3/22
s 2
f 21/64/29 16/63/30 20/66/31 22/67/32
s 5
f 32/10/33 34/9/34 8/13/35 11/14/36
f 12/17/37 11/14/36 8/13/35 7/18/38
s 1
f 23/42/39 33/43/40 2/40/2 1/39/1
f 15/46/25 13/44/41 24/45/42 25/47/43 19/48/26
s 2
f 27/60/44 31/59/45 14/61/46 26/62/47
f 14/61/46 16/63/30 21/64/29 28/65/48 26/62/47
s 1
f 29/51/49 34/52/50 18/50/24 17/49/23
s 2
f 30/69/51 32/68/52 11/70/11 10/71/10
s 8
f 3/19/53 4/20/54 6/21/55 1/22/56
f 23/24/57 27/23/58 26/25/59 24/26/60
f 10/35/61 9/36/62 29/34/63 30/33/64
f 25/28/65 28/27/66 21/29/67 22/30/68 17/31/69 19/32/70
f 24/26/60 26/25/59 28/27/66 25/28/65
f 17/31/69 22/30/68 30/33/64 29/34/63
f 1/22/56 6/21/55 27/23/58 23/24/57
f 12/37/71 7/38/72 9/36/62 10/35/61
s 2
f 5/57/5 31/59/45 27/60/44 6/58/6
f 20/66/31 32/68/52 30/69/51 22/67/32
s 5
f 2/11/14 33/8/18 31/7/17 5/12/15
f 18/5/27 34/9/34 32/10/33 20/6/28
s 1
f 13/44/41 33/43/40 23/42/39 24/45/42
f 8/53/8 34/52/50 29/51/49 9/54/9
