# This file uses centimeters as units for non-parametric coordinates.

mtllib Mouth2.mtl
g default
v -12.318842 66.995819 32.764120
v -12.816095 65.879120 32.764120
v -14.610759 66.410660 32.764120
v -14.610761 66.410660 35.235242
v -12.816095 65.879120 35.235242
v -12.318842 66.995819 35.235242
v 14.610770 66.410675 32.764119
v 12.816100 65.879135 32.764119
v 12.318838 66.995850 32.764119
v 12.318838 66.995835 35.235241
v 12.816100 65.879135 35.235241
v 14.610768 66.410675 35.235240
v -6.737821 64.790238 32.764120
v -6.737821 64.790238 35.235242
v 0.000001 64.513047 32.764120
v 0.000001 64.513047 35.235241
v 5.735633 67.826477 32.764119
v 6.737823 64.790238 32.764119
v 0.000001 68.076584 32.764120
v 6.737823 64.790238 35.235241
v 0.000001 68.076584 35.235241
v 5.735633 67.826477 35.235241
v -10.803826 67.312073 32.764120
v -5.735632 67.826462 32.764120
v 0.000001 68.076584 32.764120
v -5.735632 67.826462 35.235242
v -10.803826 67.312073 35.235242
v 0.000001 68.076584 35.235241
v 10.803828 67.312088 32.764119
v 10.803828 67.312088 35.235241
v -11.600441 65.509095 35.235242
v 11.600444 65.509110 35.235241
v -11.600441 65.509095 32.764120
v 11.600444 65.509095 32.764119
vt 0.345621 1.000000
vt 0.345528 0.936785
vt 0.428987 0.936661
vt 0.429080 0.999876
vt 0.345464 0.893868
vt 0.428923 0.893744
vt 0.345218 0.727854
vt 0.428677 0.727730
vt 0.344881 0.500100
vt 0.428340 0.499976
vt 0.344543 0.272346
vt 0.428002 0.272222
vt 0.344297 0.106332
vt 0.427757 0.106208
vt 0.344234 0.063415
vt 0.427693 0.063291
vt 0.427599 0.000076
vt 0.344140 0.000200
vt 0.339009 0.996547
vt 0.255550 0.996292
vt 0.255794 0.916402
vt 0.339253 0.916657
vt 0.255954 0.864132
vt 0.339412 0.864387
vt 0.256479 0.692081
vt 0.339938 0.692336
vt 0.257069 0.498187
vt 0.340534 0.498440
vt 0.257062 0.498184
vt 0.257665 0.304290
vt 0.341124 0.304545
vt 0.340537 0.498436
vt 0.258192 0.132236
vt 0.341650 0.132492
vt 0.258352 0.079966
vt 0.341810 0.080221
vt 0.258596 0.000076
vt 0.342055 0.000331
vt 0.010040 0.904969
vt 0.046279 0.924749
vt 0.023499 0.983717
vt 0.003518 0.853107
vt 0.062045 0.884833
vt 0.099483 0.723095
vt 0.000000 0.681092
vt 0.127161 0.497032
vt 0.007195 0.487330
vt 0.007199 0.487323
vt 0.031236 0.294921
vt 0.136177 0.269453
vt 0.062356 0.125708
vt 0.125221 0.103801
vt 0.116075 0.061869
vt 0.077128 0.075568
vt 0.103069 0.000006
vt 0.164796 0.985154
vt 0.150501 0.923576
vt 0.189154 0.909068
vt 0.140483 0.881845
vt 0.202876 0.858631
vt 0.126071 0.716458
vt 0.230455 0.688804
vt 0.130338 0.488744
vt 0.250473 0.495945
vt 0.250478 0.495939
vt 0.153295 0.262149
vt 0.253632 0.302070
vt 0.187355 0.099667
vt 0.246530 0.130166
vt 0.202285 0.059430
vt 0.238928 0.078451
vt 0.223831 0.000000
vn -0.000000 0.000000 -1.000000
vn -0.000000 0.000000 -1.000000
vn -0.000000 0.000000 -1.000000
vn 0.000000 0.000000 1.000000
vn 0.000000 -0.000000 1.000000
vn 0.000000 -0.000000 1.000000
vn 0.000000 0.000000 -1.000000
vn -0.000000 -0.000000 -1.000000
vn -0.000000 -0.000000 -1.000000
vn 0.000000 0.000000 1.000000
vn 0.000000 0.000000 1.000000
vn 0.000000 0.000000 1.000000
vn -0.283984 -0.958829 -0.000004
vn -0.286901 -0.957960 -0.000003
vn -0.286901 -0.957960 -0.000003
vn -0.283984 -0.958829 -0.000004
vn -0.176336 -0.984330 0.000000
vn -0.176336 -0.984330 0.000000
vn -0.085548 -0.996334 0.000000
vn -0.085548 -0.996334 0.000000
vn 0.000000 -1.000000 -0.000001
vn -0.000000 -1.000000 -0.000001
vn -0.000000 -0.000000 -1.000000
vn -0.000000 -0.000000 -1.000000
vn -0.000000 -0.000000 -1.000000
vn -0.000000 -0.000000 -1.000000
vn 0.085549 -0.996334 -0.000001
vn 0.085549 -0.996334 -0.000001
vn 0.000000 -0.000000 1.000000
vn 0.000000 -0.000000 1.000000
vn 0.000000 0.000000 1.000000
vn 0.000000 0.000000 1.000000
vn 0.176339 -0.984330 0.000002
vn 0.176338 -0.984330 0.000002
vn 0.286903 -0.957960 0.000003
vn 0.286903 -0.957960 0.000003
vn 0.283983 -0.958829 -0.000002
vn 0.283983 -0.958829 -0.000002
vn -0.000000 0.000000 -1.000000
vn -0.000000 0.000000 -1.000000
vn -0.000000 0.000000 -1.000000
vn -0.000000 0.000000 -1.000000
vn -0.000000 0.000000 -1.000000
vn 0.000000 0.000000 1.000000
vn 0.000000 -0.000000 1.000000
vn 0.000000 -0.000000 1.000000
vn 0.000000 -0.000000 1.000000
vn 0.000000 -0.000000 1.000000
vn -0.000000 0.000000 -1.000000
vn -0.000000 -0.000000 -1.000000
vn 0.000000 0.000000 1.000000
vn 0.000000 0.000000 1.000000
vn -0.247379 0.968919 0.000000
vn -0.247379 0.968919 0.000000
vn -0.230411 0.973094 0.000000
vn -0.230411 0.973094 0.000000
vn -0.125183 0.992134 0.000000
vn -0.125183 0.992134 0.000000
vn -0.070586 0.997506 0.000000
vn -0.070586 0.997506 0.000000
vn 0.230411 0.973094 -0.000002
vn 0.230411 0.973094 -0.000002
vn 0.125182 0.992134 0.000001
vn 0.125182 0.992134 0.000001
vn -0.000001 1.000000 0.000001
vn -0.000001 1.000000 0.000001
vn 0.043564 0.999051 0.000001
vn 0.070585 0.997506 0.000001
vn 0.070585 0.997506 0.000001
vn 0.043564 0.999051 0.000001
vn 0.247381 0.968918 -0.000005
vn 0.247381 0.968918 -0.000005
s 1
g Mouth2
usemtl Mouth_MatSG
f 1/39/1 2/40/2 3/41/3
s 2
f 4/56/4 5/57/5 6/58/6
s 1
f 7/55/7 8/53/8 9/54/9
s 2
f 10/71/10 11/70/11 12/72/12
s 5
f 3/1/13 2/2/14 5/3/15 4/4/16
f 31/6/17 33/5/18 13/7/19 14/8/20
f 13/7/19 15/9/21 16/10/22 14/8/20
s 1
f 17/49/23 18/50/24 15/46/25 19/48/26
s 5
f 15/9/21 18/11/27 20/12/28 16/10/22
s 2
f 21/64/29 16/63/30 20/66/31 22/67/32
s 5
f 32/14/33 34/13/34 8/15/35 11/16/36
f 12/17/37 11/16/36 8/15/35 7/18/38
s 1
f 23/42/39 33/43/40 2/40/2 1/39/1
f 15/46/25 13/44/41 24/45/42 25/47/43 19/48/26
s 2
f 27/60/44 31/59/45 14/61/46 26/62/47
f 14/61/46 16/63/30 21/64/29 28/65/48 26/62/47
s 1
f 29/51/49 34/52/50 18/50/24 17/49/23
s 2
f 30/69/51 32/68/52 11/70/11 10/71/10
s 8
f 3/19/53 4/20/54 6/21/55 1/22/56
f 23/24/57 27/23/58 26/25/59 24/26/60
f 10/35/61 9/36/62 29/34/63 30/33/64
f 25/28/65 28/27/66 21/29/67 22/30/68 17/31/69 19/32/70
f 24/26/60 26/25/59 28/27/66 25/28/65
f 17/31/69 22/30/68 30/33/64 29/34/63
f 1/22/56 6/21/55 27/23/58 23/24/57
f 12/37/71 7/38/72 9/36/62 10/35/61
s 2
f 5/57/5 31/59/45 27/60/44 6/58/6
f 20/66/31 32/68/52 30/69/51 22/67/32
s 5
f 2/2/14 33/5/18 31/6/17 5/3/15
f 18/11/27 34/13/34 32/14/33 20/12/28
s 1
f 13/44/41 33/43/40 23/42/39 24/45/42
f 8/53/8 34/52/50 29/51/49 9/54/9
