# This file uses centimeters as units for non-parametric coordinates.

mtllib RightHand2.mtl
g default
v -41.793659 4.023942 0.058978
v -50.920128 3.665831 11.659493
v -41.670851 4.543294 10.359478
v -50.950828 2.867767 0.059328
v -65.927164 0.619268 0.060009
v -65.927164 1.541201 13.060536
v -50.828015 9.346033 20.341693
v -40.647429 8.896442 19.322391
v -65.927164 7.966571 22.667881
v -41.793663 40.469909 0.047944
v -41.670851 39.981112 10.348749
v -40.647438 35.829575 19.314240
v -41.548038 22.587355 21.977672
v -40.647438 35.816273 -19.223871
v -40.647438 8.883141 -19.215717
v -41.548043 22.572217 -21.881826
v -85.690401 -0.239653 0.060269
v -85.690383 0.718227 13.567936
v -85.690401 7.394262 23.550052
v -106.364557 1.943831 12.812291
v -106.364557 8.246572 22.236280
v -106.364557 1.039495 0.059882
v -50.828024 35.871526 -20.235851
v -50.889424 22.619294 -23.273642
v -50.828015 9.332031 -20.227816
v -65.927164 22.628797 -25.948263
v -65.927164 7.950973 -22.552308
v -65.927164 37.308954 -22.561194
v -50.920128 41.517851 -11.552935
v -41.670851 39.973988 -10.253423
v -50.950828 42.310055 0.047387
v -65.927164 43.734329 -12.953851
v -65.927164 44.656269 0.046676
v -50.889424 22.635396 23.379054
v -50.828015 35.885529 20.333656
v -65.927164 22.646746 26.054948
v -65.927164 37.324562 22.658993
v -106.364557 44.236049 0.046803
v -123.770043 40.405849 0.047963
v -123.684016 39.679067 -10.757058
v -106.364557 43.331722 -12.705607
v -123.425968 34.545852 -18.648189
v -106.364557 37.028967 -22.129593
v -134.901712 32.845601 -8.817356
v -132.702229 30.978521 -14.871587
v -135.356345 33.220452 0.050139
v -85.690401 45.515194 0.046416
v -85.690383 44.557292 -13.461252
v -85.690401 37.881282 -23.443372
v -85.690383 22.647096 27.069251
v -85.690401 37.897476 23.540818
v -106.364557 22.646584 25.558704
v -106.364557 37.044277 22.227561
v -85.690383 22.628447 -26.962577
v -85.690401 7.378046 -23.434137
v -106.364557 22.628978 -25.452024
v -106.364557 8.231262 -22.120876
v -135.356345 12.055078 0.056546
v -139.337523 22.637781 0.053342
v -138.723140 22.640628 8.354826
v -134.901685 12.429929 8.924040
v -134.447071 22.643125 15.564520
v -132.702229 14.297027 14.978272
v -134.901712 32.851722 8.917857
v -132.702229 30.988822 14.973218
v -123.425968 10.729687 18.754876
v -123.597997 22.645151 21.434132
v -123.425968 34.558746 18.747660
v -123.597997 22.630392 -21.327447
v -123.425968 10.716780 -18.640977
v -134.447053 22.632409 -15.457831
v -132.702229 14.286722 -14.866536
v -123.770043 4.869686 0.058722
v -123.684016 5.596468 10.863743
v -123.684016 5.589009 -10.746735
v -106.364557 1.935028 -12.693072
v -134.901712 12.423808 -8.811173
v -138.723140 22.634907 -8.248142
v -85.690383 44.566639 13.554659
v -65.927159 43.743317 13.047757
v -106.364557 43.340525 12.799759
v -123.684016 39.686526 10.853422
v -50.920128 41.525859 11.648031
v -85.690383 0.708902 -13.447978
v -65.927159 1.532227 -12.941074
v -41.670851 4.536183 -10.242693
v -50.920128 3.657824 -11.541473
vt 0.295686 0.661537
vt 0.235976 0.716926
vt 0.231113 0.669452
vt 0.298743 0.714388
vt 0.172292 0.730835
vt 0.289934 0.608069
vt 0.376341 0.657576
vt 0.243901 0.765202
vt 0.189181 0.770110
vt 0.166540 0.677367
vt 0.368570 0.591631
vt 0.226250 0.621978
vt 0.376328 0.724721
vt 0.298278 0.753766
vt 0.093656 0.747272
vt 0.349591 0.538486
vt 0.273045 0.568794
vt 0.085885 0.681327
vt 0.112635 0.800418
vt 0.163483 0.624516
vt 0.218325 0.573701
vt 0.085899 0.614183
vt 0.163948 0.585137
vt 0.564331 0.571265
vt 0.486949 0.502947
vt 0.569566 0.510170
vt 0.483164 0.559018
vt 0.492518 0.412947
vt 0.403954 0.499845
vt 0.403334 0.408427
vt 0.581688 0.419252
vt 0.398967 0.561112
vt 0.407318 0.291071
vt 0.499620 0.297201
vt 0.631590 0.520129
vt 0.341468 0.501652
vt 0.334952 0.409127
vt 0.336233 0.285589
vt 0.592059 0.302276
vt 0.623637 0.576187
vt 0.650156 0.428340
vt 0.353697 0.156866
vt 0.420185 0.168803
vt 0.506987 0.176258
vt 0.594134 0.179342
vt 0.663415 0.305335
vt 0.383763 0.050618
vt 0.439411 0.065163
vt 0.513362 0.072713
vt 0.587397 0.074601
vt 0.660880 0.175219
vt 0.465868 0.005292
vt 0.518283 0.000075
vt 0.568914 0.012318
vt 0.643659 0.066991
vt 0.228952 0.572490
vt 0.149985 0.502133
vt 0.232606 0.511242
vt 0.145410 0.558187
vt 0.157450 0.412270
vt 0.067373 0.497111
vt 0.068397 0.405755
vt 0.246456 0.420579
vt 0.063609 0.558379
vt 0.074940 0.288552
vt 0.167092 0.296718
vt 0.294513 0.522504
vt 0.005035 0.497940
vt 0.000000 0.405066
vt 0.003980 0.281530
vt 0.259395 0.303838
vt 0.287649 0.578194
vt 0.314712 0.431155
vt 0.024279 0.153213
vt 0.090491 0.166606
vt 0.177111 0.175969
vt 0.264170 0.180972
vt 0.330667 0.308462
vt 0.056674 0.047652
vt 0.111990 0.063416
vt 0.185760 0.072590
vt 0.259735 0.076106
vt 0.330990 0.178316
vt 0.139757 0.004141
vt 0.192275 0.000078
vt 0.242624 0.013431
vt 0.316150 0.069734
vt 0.707118 0.989068
vt 0.645471 0.989993
vt 0.637779 0.934450
vt 0.707285 0.933915
vt 0.629709 0.843737
vt 0.768778 0.990361
vt 0.707546 0.843527
vt 0.776838 0.934875
vt 0.626962 0.725276
vt 0.827895 1.000000
vt 0.707868 0.725558
vt 0.785431 0.844155
vt 0.631823 0.601232
vt 0.708203 0.602063
vt 0.788785 0.725698
vt 0.643665 0.495242
vt 0.708519 0.495713
vt 0.784534 0.601627
vt 0.773278 0.495658
vt 0.319058 0.055377
vt 0.259459 0.060949
vt 0.253361 0.000050
vt 0.746293 0.494420
vt 0.684619 0.495527
vt 0.676884 0.439447
vt 0.746353 0.438643
vt 0.668594 0.348622
vt 0.808004 0.495648
vt 0.746436 0.348217
vt 0.815881 0.439586
vt 0.665610 0.230149
vt 0.866355 0.506547
vt 0.746522 0.230264
vt 0.824319 0.348729
vt 0.670230 0.106093
vt 0.746612 0.106772
vt 0.827440 0.230250
vt 0.681864 0.000078
vt 0.746719 0.000421
vt 0.822943 0.106186
vt 0.811478 0.000239
vt 0.932502 0.054102
vt 0.873489 0.060891
vt 0.867441 0.000051
vt 0.668644 0.072632
vt 0.614079 0.058849
vt 0.638032 0.000000
vt 0.874769 0.072634
vt 0.820204 0.058851
vt 0.844156 0.000002
vt 0.371780 0.076138
vt 0.322070 0.000066
vt 0.359738 0.013752
vt 0.337430 0.076135
vt 0.287715 0.000066
vt 0.325385 0.013750
vn 0.115398 -0.991495 0.060179
vn 0.101140 -0.993670 0.048895
vn 0.112982 -0.991887 0.058266
vn 0.124980 -0.989842 0.067768
vn 0.147030 -0.986744 0.068686
vn 0.147299 -0.986682 0.069002
vn 0.148112 -0.986493 0.069957
vn 0.146034 -0.986973 0.067515
vn 0.078072 -0.868510 0.489484
vn 0.074395 -0.870255 0.486951
vn 0.154373 -0.827539 0.539767
vn 0.003973 -0.899690 0.436512
vn 0.162385 -0.823756 0.543192
vn 0.164130 -0.822231 0.544975
vn 0.167196 -0.819531 0.548100
vn 0.158649 -0.826992 0.539364
vn 0.043313 -0.996559 0.070671
vn 0.043312 -0.996559 0.070670
vn 0.043312 -0.996559 0.070670
vn 0.043313 -0.996559 0.070671
vn 0.048828 -0.830240 0.555263
vn 0.048828 -0.830240 0.555264
vn 0.048828 -0.830240 0.555264
vn 0.048827 -0.830240 0.555263
vn -0.069428 -0.829226 0.554585
vn -0.069428 -0.829226 0.554585
vn -0.069428 -0.829226 0.554585
vn -0.069428 -0.829225 0.554585
vn -0.061601 -0.995601 0.070602
vn -0.061601 -0.995601 0.070603
vn -0.061601 -0.995601 0.070603
vn -0.061601 -0.995601 0.070602
vn 0.115370 0.208495 -0.971195
vn 0.124840 0.201255 -0.971551
vn 0.097641 0.221936 -0.970160
vn 0.145733 0.185131 -0.971848
vn 0.119787 -0.205302 -0.971340
vn 0.108175 -0.197533 -0.974309
vn 0.142653 -0.220522 -0.964894
vn 0.089154 -0.184754 -0.978733
vn 0.169363 -0.220861 -0.960488
vn 0.169468 -0.220967 -0.960445
vn 0.170602 -0.222107 -0.959981
vn 0.168028 -0.219519 -0.961030
vn 0.169946 0.220536 -0.960459
vn 0.169863 0.220628 -0.960453
vn 0.168999 0.221584 -0.960385
vn 0.170981 0.219391 -0.960538
vn 0.186117 0.980825 -0.057818
vn 0.170665 0.984285 -0.045350
vn 0.162627 0.984661 -0.063202
vn 0.168974 0.983298 -0.067616
vn 0.153420 0.985767 -0.068738
vn 0.154398 0.985534 -0.069890
vn 0.128847 0.870081 -0.475771
vn 0.125656 0.871765 -0.473536
vn 0.211573 0.820382 -0.531234
vn 0.046253 0.908316 -0.415719
vn 0.166122 0.824091 -0.541550
vn 0.168288 0.822186 -0.543774
vn 0.172061 0.818835 -0.547635
vn 0.161504 0.828113 -0.536792
vn 0.109169 -0.205763 0.972494
vn 0.121009 -0.197055 0.972896
vn 0.087455 -0.221572 0.971214
vn 0.145056 -0.179179 0.973064
vn 0.125925 0.207798 0.970032
vn 0.116302 0.201398 0.972580
vn 0.145802 0.220963 0.964322
vn 0.098858 0.189751 0.976843
vn 0.169995 0.221103 0.960320
vn 0.170081 0.221190 0.960285
vn 0.170980 0.222093 0.959917
vn 0.168931 0.220035 0.960753
vn 0.169452 -0.220261 0.960610
vn 0.169347 -0.220377 0.960602
vn 0.168224 -0.221614 0.960514
vn 0.170789 -0.218787 0.960710
vn -0.213659 0.974502 -0.068525
vn -0.213948 0.974472 -0.068049
vn -0.214433 0.974421 -0.067251
vn -0.213304 0.974539 -0.069109
vn -0.229152 0.810053 -0.539725
vn -0.230230 0.810937 -0.537937
vn -0.231527 0.811996 -0.535778
vn -0.228228 0.809293 -0.541254
vn -0.494285 0.733191 -0.467026
vn -0.506396 0.736766 -0.448040
vn -0.524109 0.741419 -0.419055
vn -0.479404 0.728396 -0.489501
vn -0.526639 0.847843 -0.061761
vn -0.526449 0.847937 -0.062081
vn -0.526007 0.848157 -0.062823
vn -0.526965 0.847680 -0.061211
vn 0.043312 0.996559 -0.070672
vn 0.043312 0.996559 -0.070671
vn 0.043313 0.996559 -0.070671
vn 0.043312 0.996559 -0.070672
vn 0.048828 0.830240 -0.555263
vn 0.048828 0.830240 -0.555263
vn 0.048827 0.830241 -0.555262
vn 0.048828 0.830240 -0.555263
vn -0.069427 0.829226 -0.554584
vn -0.069427 0.829226 -0.554585
vn -0.069427 0.829225 -0.554585
vn -0.069427 0.829226 -0.554584
vn -0.061601 0.995601 -0.070603
vn -0.061600 0.995601 -0.070603
vn -0.061600 0.995601 -0.070602
vn -0.061601 0.995601 -0.070604
vn 0.049942 -0.224537 0.973185
vn 0.049942 -0.224537 0.973185
vn 0.049942 -0.224537 0.973185
vn 0.049943 -0.224537 0.973185
vn 0.049943 0.225131 0.973048
vn 0.049943 0.225131 0.973048
vn 0.049943 0.225131 0.973048
vn 0.049943 0.225131 0.973048
vn -0.071010 0.224843 0.971804
vn -0.071010 0.224843 0.971804
vn -0.071010 0.224843 0.971804
vn -0.071010 0.224843 0.971804
vn -0.071009 -0.224250 0.971941
vn -0.071009 -0.224250 0.971941
vn -0.071009 -0.224250 0.971941
vn -0.071009 -0.224250 0.971941
vn 0.049943 0.224538 -0.973185
vn 0.049943 0.224538 -0.973185
vn 0.049943 0.224538 -0.973185
vn 0.049943 0.224537 -0.973185
vn 0.049944 -0.225131 -0.973048
vn 0.049944 -0.225131 -0.973048
vn 0.049944 -0.225131 -0.973047
vn 0.049943 -0.225131 -0.973048
vn -0.071010 -0.224843 -0.971804
vn -0.071010 -0.224843 -0.971804
vn -0.071010 -0.224843 -0.971804
vn -0.071010 -0.224843 -0.971804
vn -0.071009 0.224251 -0.971941
vn -0.071009 0.224251 -0.971941
vn -0.071009 0.224251 -0.971941
vn -0.071009 0.224251 -0.971941
vn -0.934995 -0.348593 0.065329
vn -0.934647 -0.349322 0.066400
vn -0.933722 -0.351242 0.069224
vn -0.935859 -0.346763 0.062642
vn -0.853979 -0.256369 0.452764
vn -0.843872 -0.265564 0.466214
vn -0.825259 -0.281570 0.489556
vn -0.894904 -0.214574 0.391286
vn -0.852165 0.250288 0.459533
vn -0.855797 0.264998 0.444283
vn -0.863038 0.300602 0.405960
vn -0.840748 0.211101 0.498577
vn -0.934909 0.348685 0.066065
vn -0.934680 0.349495 0.065016
vn -0.934124 0.351434 0.062503
vn -0.935567 0.346318 0.069122
vn -0.226512 -0.218226 0.949247
vn -0.226228 -0.217878 0.949394
vn -0.225373 -0.216830 0.949838
vn -0.227097 -0.218943 0.948942
vn -0.226151 0.218816 0.949197
vn -0.226426 0.218434 0.949219
vn -0.227215 0.217340 0.949282
vn -0.225584 0.219602 0.949151
vn -0.449117 0.186554 0.873780
vn -0.451614 0.183357 0.873169
vn -0.469760 0.159728 0.868224
vn -0.435303 0.204015 0.876863
vn -0.456238 -0.189215 0.869508
vn -0.454143 -0.186846 0.871116
vn -0.422015 -0.151018 0.893922
vn -0.466156 -0.200485 0.861687
vn -0.226512 0.218227 -0.949247
vn -0.226229 0.217879 -0.949394
vn -0.225374 0.216830 -0.949838
vn -0.227097 0.218944 -0.948942
vn -0.226151 -0.218816 -0.949197
vn -0.226426 -0.218434 -0.949219
vn -0.227215 -0.217341 -0.949282
vn -0.225583 -0.219602 -0.949151
vn -0.449118 -0.186554 -0.873780
vn -0.451615 -0.183356 -0.873169
vn -0.469761 -0.159727 -0.868224
vn -0.435304 -0.204015 -0.876863
vn -0.456238 0.189215 -0.869508
vn -0.454143 0.186846 -0.871116
vn -0.422014 0.151016 -0.893923
vn -0.466157 0.200485 -0.861687
vn -0.213658 -0.974502 0.068525
vn -0.213947 -0.974472 0.068049
vn -0.214432 -0.974421 0.067250
vn -0.213303 -0.974539 0.069109
vn -0.229152 -0.810054 0.539724
vn -0.230229 -0.810937 0.537937
vn -0.231527 -0.811996 0.535778
vn -0.228228 -0.809294 0.541254
vn -0.494285 -0.733190 0.467027
vn -0.506396 -0.736765 0.448041
vn -0.524110 -0.741418 0.419055
vn -0.479404 -0.728395 0.489502
vn -0.526639 -0.847842 0.061761
vn -0.526449 -0.847937 0.062081
vn -0.526007 -0.848156 0.062823
vn -0.526965 -0.847680 0.061212
vn -0.230406 -0.810152 -0.539042
vn -0.229247 -0.811452 -0.537579
vn -0.227713 -0.813164 -0.535641
vn -0.231404 -0.809030 -0.540300
vn -0.214008 -0.974473 -0.067847
vn -0.213692 -0.974574 -0.067392
vn -0.213131 -0.974752 -0.066586
vn -0.214407 -0.974345 -0.068420
vn -0.526395 -0.848037 -0.061165
vn -0.526591 -0.847894 -0.061463
vn -0.527119 -0.847507 -0.062264
vn -0.526061 -0.848281 -0.060659
vn -0.508669 -0.722403 -0.468391
vn -0.500876 -0.734964 -0.457112
vn -0.468213 -0.782341 -0.410753
vn -0.515614 -0.710744 -0.478524
vn -0.855797 -0.264997 -0.444284
vn -0.852165 -0.250287 -0.459534
vn -0.840748 -0.211099 -0.498577
vn -0.863038 -0.300601 -0.405962
vn -0.934680 -0.349495 -0.065015
vn -0.934909 -0.348684 -0.066064
vn -0.935567 -0.346318 -0.069118
vn -0.934124 -0.351433 -0.062505
vn -0.934647 0.349322 -0.066397
vn -0.934995 0.348593 -0.065326
vn -0.935860 0.346761 -0.062637
vn -0.933722 0.351243 -0.069224
vn -0.843871 0.265561 -0.466217
vn -0.853978 0.256367 -0.452767
vn -0.894904 0.214572 -0.391287
vn -0.825258 0.281567 -0.489560
vn 0.048830 0.830608 0.554713
vn 0.048830 0.830608 0.554713
vn 0.048830 0.830607 0.554713
vn 0.048830 0.830608 0.554712
vn 0.043312 0.996607 0.069983
vn 0.043312 0.996607 0.069982
vn 0.043313 0.996607 0.069982
vn 0.043312 0.996607 0.069983
vn -0.061601 0.995649 0.069915
vn -0.061601 0.995649 0.069915
vn -0.061601 0.995649 0.069915
vn -0.061601 0.995649 0.069915
vn -0.069430 0.829593 0.554035
vn -0.069430 0.829593 0.554035
vn -0.069429 0.829594 0.554034
vn -0.069431 0.829593 0.554036
vn -0.230407 0.810152 0.539042
vn -0.229248 0.811452 0.537580
vn -0.227714 0.813163 0.535642
vn -0.231404 0.809029 0.540300
vn -0.214009 0.974473 0.067847
vn -0.213693 0.974574 0.067393
vn -0.213132 0.974752 0.066587
vn -0.214407 0.974345 0.068420
vn -0.526395 0.848037 0.061165
vn -0.526591 0.847894 0.061462
vn -0.527119 0.847507 0.062264
vn -0.526062 0.848280 0.060658
vn -0.508669 0.722403 0.468391
vn -0.500876 0.734964 0.457112
vn -0.468213 0.782342 0.410752
vn -0.515615 0.710743 0.478525
vn 0.124304 0.868926 0.479079
vn 0.127076 0.870090 0.476230
vn 0.058999 0.837503 0.543238
vn 0.204851 0.896898 0.391932
vn 0.182767 0.981488 0.057250
vn 0.196819 0.979446 0.044130
vn 0.165582 0.984233 0.062195
vn 0.160158 0.984809 0.067092
vn 0.153030 0.985875 0.068067
vn 0.152140 0.985931 0.069233
vn 0.167952 0.824195 0.540828
vn 0.165956 0.822839 0.543502
vn 0.162594 0.820534 0.547984
vn 0.172118 0.826995 0.535214
vn 0.048830 -0.830608 -0.554712
vn 0.048830 -0.830608 -0.554712
vn 0.048830 -0.830608 -0.554712
vn 0.048830 -0.830608 -0.554712
vn 0.043313 -0.996607 -0.069983
vn 0.043313 -0.996607 -0.069983
vn 0.043313 -0.996607 -0.069982
vn 0.043312 -0.996607 -0.069984
vn -0.061601 -0.995649 -0.069915
vn -0.061602 -0.995649 -0.069916
vn -0.061602 -0.995649 -0.069916
vn -0.061601 -0.995649 -0.069915
vn -0.069431 -0.829594 -0.554034
vn -0.069430 -0.829594 -0.554034
vn -0.069430 -0.829594 -0.554033
vn -0.069431 -0.829593 -0.554034
vn 0.073418 -0.867334 -0.492282
vn 0.076602 -0.868875 -0.489069
vn 0.017435 -0.837162 -0.546677
vn 0.143888 -0.896931 -0.418105
vn 0.112174 -0.991900 -0.059593
vn 0.125119 -0.990990 -0.047784
vn 0.135970 -0.988678 -0.063464
vn 0.132583 -0.988852 -0.067780
vn 0.146975 -0.986777 -0.068328
vn 0.146236 -0.986820 -0.069296
vn 0.163829 -0.823940 -0.542478
vn 0.162220 -0.822837 -0.544631
vn 0.159494 -0.820955 -0.548265
vn 0.167198 -0.826230 -0.537948
s 1
g RightHand2
usemtl RightHandMatSG
f 1/88/1 3/89/2 2/90/3
f 1/88/1 2/90/3 4/91/4
s 2
f 4/91/5 6/92/6 5/94/7
f 4/91/5 2/90/8 6/92/6
s 3
f 3/72/9 7/58/10 2/67/11
f 3/107/9 8/108/12 7/109/10
s 4
f 2/67/13 9/63/14 6/73/15
f 2/67/13 7/58/16 9/63/14
s 5
f 5/94/17 18/96/18 17/98/19
f 5/94/17 6/92/20 18/96/18
s 6
f 6/73/21 19/71/22 18/78/23
f 6/73/21 9/63/24 19/71/22
s 7
f 18/78/25 21/77/26 20/83/27
f 18/78/25 19/71/28 21/77/26
s 8
f 17/98/29 20/100/30 22/101/31
f 17/98/29 18/96/32 20/100/30
s 9
f 14/24/33 24/25/34 23/26/35
f 14/24/33 16/27/36 24/25/34
s 10
f 16/27/37 25/29/38 24/25/39
f 16/27/37 15/32/40 25/29/38
s 11
f 24/25/41 27/30/42 26/28/43
f 24/25/41 25/29/44 27/30/42
s 12
f 23/26/45 26/28/46 28/31/47
f 23/26/45 24/25/48 26/28/46
s 13
f 10/110/49 30/111/50 29/112/51
f 10/110/49 29/112/51 31/113/52
f 31/113/52 29/112/51 32/114/53
f 31/113/52 32/114/53 33/116/54
s 14
f 30/40/55 23/26/56 29/35/57
f 30/129/55 14/130/58 23/131/56
s 15
f 29/35/59 28/31/60 32/41/61
f 29/35/59 23/26/62 28/31/60
s 16
f 8/56/63 34/57/64 7/58/65
f 8/56/63 13/59/66 34/57/64
s 17
f 13/59/67 35/61/68 34/57/69
f 13/59/67 12/64/70 35/61/68
s 18
f 34/57/71 37/62/72 36/60/73
f 34/57/71 35/61/74 37/62/72
s 19
f 7/58/75 36/60/76 9/63/77
f 7/58/75 34/57/78 36/60/76
s 20
f 38/123/79 40/125/80 39/126/81
f 38/123/79 41/122/82 40/125/80
s 21
f 41/51/83 42/50/84 40/55/85
f 41/51/83 43/45/86 42/50/84
s 22
f 40/22/87 45/23/88 44/20/89
f 40/132/87 42/133/90 45/134/88
s 23
f 39/18/91 44/20/92 46/10/93
f 39/18/91 40/22/94 44/20/92
s 24
f 33/116/95 48/118/96 47/120/97
f 33/116/95 32/114/98 48/118/96
s 25
f 32/41/99 49/39/100 48/46/101
f 32/41/99 28/31/102 49/39/100
s 26
f 48/46/103 43/45/104 41/51/105
f 48/46/103 49/39/106 43/45/104
s 27
f 47/120/107 41/122/108 38/123/109
f 47/120/107 48/118/110 41/122/108
s 28
f 9/63/111 50/66/112 19/71/113
f 9/63/111 36/60/114 50/66/112
s 29
f 36/60/115 51/65/116 50/66/117
f 36/60/115 37/62/118 51/65/116
s 30
f 50/66/119 53/75/120 52/76/121
f 50/66/119 51/65/122 53/75/120
s 31
f 19/71/123 52/76/124 21/77/125
f 19/71/123 50/66/126 52/76/124
s 32
f 28/31/127 54/34/128 49/39/129
f 28/31/127 26/28/130 54/34/128
s 33
f 26/28/131 55/33/132 54/34/133
f 26/28/131 27/30/134 55/33/132
s 34
f 54/34/135 57/43/136 56/44/137
f 54/34/135 55/33/138 57/43/136
s 35
f 49/39/139 56/44/140 43/45/141
f 49/39/139 54/34/142 56/44/140
s 36
f 58/1/143 60/2/144 59/3/145
f 58/1/143 61/4/146 60/2/144
s 37
f 61/4/147 62/8/148 60/2/149
f 61/4/147 63/14/150 62/8/148
s 38
f 60/2/151 65/9/152 64/5/153
f 60/2/151 62/8/154 65/9/152
s 39
f 59/3/155 64/5/156 46/10/157
f 59/3/155 60/2/158 64/5/156
s 40
f 21/77/159 67/81/160 66/82/161
f 21/77/159 52/76/162 67/81/160
s 41
f 52/76/163 68/80/164 67/81/165
f 52/76/163 53/75/166 68/80/164
s 42
f 67/81/167 65/84/168 62/85/169
f 67/81/167 68/80/170 65/84/168
s 43
f 66/82/171 62/85/172 63/86/173
f 66/82/171 67/81/174 62/85/172
s 44
f 43/45/175 69/49/176 42/50/177
f 43/45/175 56/44/178 69/49/176
s 45
f 56/44/179 70/48/180 69/49/181
f 56/44/179 57/43/182 70/48/180
s 46
f 69/49/183 72/52/184 71/53/185
f 69/49/183 70/48/186 72/52/184
s 47
f 42/50/187 71/53/188 45/54/189
f 42/50/187 69/49/190 71/53/188
s 48
f 22/101/191 74/103/192 73/104/193
f 22/101/191 20/100/194 74/103/192
s 49
f 20/83/195 66/82/196 74/87/197
f 20/83/195 21/77/198 66/82/196
s 50
f 74/13/199 63/14/200 61/4/201
f 74/135/199 66/136/202 63/137/200
s 51
f 73/7/203 61/4/204 58/1/205
f 73/7/203 74/13/206 61/4/204
s 52
f 57/43/207 75/47/208 70/48/209
f 57/43/207 76/42/210 75/47/208
s 53
f 76/105/211 73/104/212 75/106/213
f 76/105/211 22/101/214 73/104/212
s 54
f 75/11/215 58/1/216 77/6/217
f 75/11/215 73/7/218 58/1/216
s 55
f 70/138/219 77/139/220 72/140/221
f 70/16/219 75/11/222 77/6/220
s 56
f 72/17/223 78/12/224 71/21/225
f 72/17/223 77/6/226 78/12/224
s 57
f 77/6/227 59/3/228 78/12/229
f 77/6/227 58/1/230 59/3/228
s 58
f 78/12/231 46/10/232 44/20/233
f 78/12/231 59/3/234 46/10/232
s 59
f 71/21/235 44/20/236 45/23/237
f 71/21/235 78/12/238 44/20/236
s 60
f 37/62/239 79/70/240 51/65/241
f 37/62/239 80/69/242 79/70/240
s 61
f 80/121/243 47/120/244 79/124/245
f 80/121/243 33/116/246 47/120/244
s 62
f 79/124/247 38/123/248 81/127/249
f 79/124/247 47/120/250 38/123/248
s 63
f 51/65/251 81/74/252 53/75/253
f 51/65/251 79/70/254 81/74/252
s 64
f 53/75/255 82/79/256 68/80/257
f 53/75/255 81/74/258 82/79/256
s 65
f 81/127/259 39/126/260 82/128/261
f 81/127/259 38/123/262 39/126/260
s 66
f 82/15/263 46/10/264 64/5/265
f 82/15/263 39/18/266 46/10/264
s 67
f 68/141/267 64/142/268 65/143/269
f 68/19/267 82/15/270 64/5/268
s 68
f 12/64/271 83/68/272 35/61/273
f 12/119/271 11/115/274 83/117/272
s 69
f 11/115/275 10/110/276 31/113/277
f 11/115/275 31/113/277 83/117/278
f 83/117/278 31/113/277 33/116/279
f 83/117/278 33/116/279 80/121/280
s 70
f 35/61/281 80/69/282 37/62/283
f 35/61/281 83/68/284 80/69/282
s 71
f 27/30/285 84/38/286 55/33/287
f 27/30/285 85/37/288 84/38/286
s 72
f 85/99/289 17/98/290 84/102/291
f 85/99/289 5/94/292 17/98/290
s 73
f 84/102/293 22/101/294 76/105/295
f 84/102/293 17/98/296 22/101/294
s 74
f 55/33/297 76/42/298 57/43/299
f 55/33/297 84/38/300 76/42/298
s 75
f 15/32/301 87/36/302 25/29/303
f 15/97/301 86/93/304 87/95/302
s 76
f 86/93/305 1/88/306 4/91/307
f 86/93/305 4/91/307 87/95/308
f 87/95/308 4/91/307 5/94/309
f 87/95/308 5/94/309 85/99/310
s 77
f 25/29/311 85/37/312 27/30/313
f 25/29/311 87/36/314 85/37/312
