# This file uses centimeters as units for non-parametric coordinates.

mtllib WatchObj.mtl
g default
v -73.062714 47.289879 -7.427279
v -78.759102 47.289879 -13.123670
v -86.540520 47.289879 -15.208696
v -94.321938 47.289879 -13.123670
v -100.018326 47.289879 -7.427279
v -102.103355 47.289879 0.354138
v -100.018326 47.289879 8.135554
v -94.321938 47.289879 13.831946
v -86.540520 47.289879 15.916972
v -78.759102 47.289879 13.831946
v -73.062714 47.289879 8.135554
v -70.977684 47.289879 0.354138
v -73.062714 51.182121 -7.427279
v -78.759102 51.182121 -13.123670
v -86.540520 51.182121 -15.208696
v -94.321938 51.182121 -13.123670
v -100.018326 51.182121 -7.427279
v -102.103355 51.182121 0.354138
v -100.018326 51.182121 8.135554
v -94.321938 51.182121 13.831946
v -86.540520 51.182121 15.916972
v -78.759102 51.182121 13.831946
v -73.062714 51.182121 8.135554
v -70.977684 51.182121 0.354138
v -86.540520 47.289879 0.354138
v -86.540520 51.182121 0.354138
v -82.184799 38.258392 -24.628307
v -82.184799 22.595718 -30.480133
v -82.184799 6.933044 -24.628301
v -82.184799 -2.747019 -9.308014
v -82.184799 -2.747017 9.628900
v -82.184799 6.933050 24.949187
v -82.184799 22.595722 30.801013
v -82.184799 38.258392 24.949183
v -82.184799 47.938454 9.628897
v -82.184799 47.938454 -9.308015
v -91.620331 38.258392 -24.628307
v -91.620331 22.595718 -30.480133
v -91.620331 6.933044 -24.628301
v -91.620331 -2.747019 -9.308014
v -91.620331 -2.747017 9.628900
v -91.620331 6.933050 24.949187
v -91.620331 22.595722 30.801013
v -91.620331 38.258392 24.949183
v -91.620331 47.938454 9.628897
v -91.620331 47.938454 -9.308015
v -82.184799 22.595720 0.160441
v -91.620331 22.595720 0.160441
vt 0.174442 0.046765
vt 0.140224 0.012548
vt 0.093483 0.000024
vt 0.046742 0.012548
vt 0.012524 0.046765
vt 0.000000 0.093507
vt 0.012524 0.140248
vt 0.046742 0.174466
vt 0.093483 0.186990
vt 0.140224 0.174466
vt 0.174442 0.140248
vt 0.186966 0.093507
vt 0.000000 0.294861
vt 0.041688 0.270290
vt 0.083375 0.245718
vt 0.125063 0.221146
vt 0.166750 0.196574
vt 0.208438 0.172002
vt 0.250125 0.147431
vt 0.291813 0.122859
vt 0.333501 0.098287
vt 0.375188 0.073715
vt 0.416876 0.049144
vt 0.458563 0.024572
vt 0.500251 -0.000000
vt 0.011872 0.315003
vt 0.053559 0.290431
vt 0.095247 0.265859
vt 0.136935 0.241288
vt 0.178622 0.216716
vt 0.220310 0.192144
vt 0.261997 0.167572
vt 0.303685 0.143000
vt 0.345372 0.118429
vt 0.387060 0.093857
vt 0.428748 0.069285
vt 0.470435 0.044713
vt 0.512123 0.020141
vt 0.365161 0.417026
vt 0.330944 0.382809
vt 0.284203 0.370284
vt 0.237461 0.382809
vt 0.203244 0.417026
vt 0.190720 0.463767
vt 0.203244 0.510509
vt 0.237461 0.544726
vt 0.284203 0.557250
vt 0.330944 0.544726
vt 0.365161 0.510509
vt 0.377686 0.463767
vt 0.093483 0.093507
vt 0.284203 0.463767
vt 0.000000 0.421832
vt 0.092216 0.382041
vt 0.114671 0.434081
vt 0.022455 0.473872
vt 0.184432 0.342251
vt 0.206887 0.394290
vt 0.284381 0.299123
vt 0.306836 0.351163
vt 0.388824 0.254057
vt 0.411278 0.306096
vt 0.488773 0.210929
vt 0.511227 0.262969
vt 0.580989 0.171138
vt 0.603444 0.223178
vt 0.673205 0.131347
vt 0.695660 0.183387
vt 0.773154 0.088220
vt 0.795609 0.140259
vt 0.877596 0.043154
vt 0.900051 0.095193
vt 0.977545 0.000026
vt 1.000000 0.052066
vt 0.892389 0.139555
vt 0.970552 0.202624
vt 0.834255 0.314185
vt 0.792020 0.143190
vt 0.707783 0.212139
vt 0.671854 0.320066
vt 0.697957 0.425747
vt 0.776120 0.488815
vt 0.876489 0.485181
vt 0.960726 0.416232
vt 0.996655 0.308304
vt 0.676366 0.563060
vt 0.598508 0.626504
vt 0.539532 0.452157
vt 0.498122 0.623354
vt 0.413554 0.554812
vt 0.377105 0.447059
vt 0.402698 0.341254
vt 0.480556 0.277809
vt 0.580942 0.280960
vt 0.665510 0.349502
vt 0.701959 0.457255
vn 0.707107 0.000000 -0.707107
vn 0.707107 0.000000 -0.707107
vn 0.707107 0.000000 -0.707107
vn 0.707107 0.000000 -0.707107
vn 0.258819 0.000000 -0.965926
vn 0.258819 0.000000 -0.965926
vn 0.258819 0.000000 -0.965926
vn 0.258819 0.000000 -0.965926
vn -0.258819 0.000000 -0.965926
vn -0.258819 0.000000 -0.965926
vn -0.258819 0.000000 -0.965926
vn -0.258819 0.000000 -0.965926
vn -0.707107 0.000000 -0.707107
vn -0.707107 0.000000 -0.707107
vn -0.707107 0.000000 -0.707107
vn -0.707107 0.000000 -0.707107
vn -0.965926 0.000000 -0.258820
vn -0.965926 0.000000 -0.258820
vn -0.965926 0.000000 -0.258820
vn -0.965926 0.000000 -0.258820
vn -0.965926 0.000000 0.258820
vn -0.965926 0.000000 0.258820
vn -0.965926 0.000000 0.258820
vn -0.965926 0.000000 0.258820
vn -0.707107 0.000000 0.707107
vn -0.707107 0.000000 0.707107
vn -0.707107 0.000000 0.707107
vn -0.707107 0.000000 0.707107
vn -0.258819 0.000000 0.965926
vn -0.258819 0.000000 0.965926
vn -0.258819 0.000000 0.965926
vn -0.258819 0.000000 0.965926
vn 0.258819 0.000000 0.965926
vn 0.258819 0.000000 0.965926
vn 0.258819 0.000000 0.965926
vn 0.258819 0.000000 0.965926
vn 0.707107 0.000000 0.707107
vn 0.707107 0.000000 0.707107
vn 0.707107 0.000000 0.707107
vn 0.707107 0.000000 0.707107
vn 0.965926 0.000000 0.258820
vn 0.965926 0.000000 0.258820
vn 0.965926 0.000000 0.258820
vn 0.965926 0.000000 0.258820
vn 0.965926 0.000000 -0.258820
vn 0.965926 0.000000 -0.258820
vn 0.965926 0.000000 -0.258820
vn 0.965926 0.000000 -0.258820
vn 0.000000 -1.000000 0.000000
vn 0.000000 -1.000000 0.000000
vn 0.000000 -1.000000 0.000000
vn 0.000000 -1.000000 0.000000
vn 0.000000 -1.000000 0.000000
vn 0.000000 -1.000000 0.000000
vn 0.000000 -1.000000 0.000000
vn 0.000000 -1.000000 0.000000
vn 0.000000 -1.000000 0.000000
vn 0.000000 -1.000000 0.000000
vn 0.000000 -1.000000 0.000000
vn 0.000000 -1.000000 0.000000
vn 0.000000 -1.000000 0.000000
vn 0.000000 -1.000000 0.000000
vn 0.000000 -1.000000 0.000000
vn 0.000000 -1.000000 -0.000000
vn 0.000000 -1.000000 0.000000
vn 0.000000 -1.000000 0.000000
vn 0.000000 -1.000000 -0.000000
vn 0.000000 -1.000000 -0.000000
vn 0.000000 -1.000000 0.000000
vn 0.000000 -1.000000 0.000000
vn 0.000000 -1.000000 -0.000000
vn 0.000000 -1.000000 0.000000
vn 0.000000 -1.000000 0.000000
vn 0.000000 -1.000000 0.000000
vn 0.000000 -1.000000 0.000000
vn 0.000000 -1.000000 0.000000
vn 0.000000 -1.000000 0.000000
vn 0.000000 -1.000000 0.000000
vn 0.000000 -1.000000 0.000000
vn 0.000000 -1.000000 0.000000
vn 0.000000 -1.000000 0.000000
vn 0.000000 -1.000000 0.000000
vn 0.000000 -1.000000 0.000000
vn 0.000000 -1.000000 0.000000
vn 0.000000 1.000000 0.000000
vn 0.000000 1.000000 0.000000
vn 0.000000 1.000000 0.000000
vn 0.000000 1.000000 0.000000
vn 0.000000 1.000000 0.000000
vn 0.000000 1.000000 0.000000
vn 0.000000 1.000000 0.000000
vn 0.000000 1.000000 0.000000
vn 0.000000 1.000000 0.000000
vn 0.000000 1.000000 0.000000
vn 0.000000 1.000000 0.000000
vn 0.000000 1.000000 0.000000
vn 0.000000 1.000000 0.000000
vn 0.000000 1.000000 0.000000
vn 0.000000 1.000000 0.000000
vn 0.000000 1.000000 0.000000
vn 0.000000 1.000000 0.000000
vn 0.000000 1.000000 0.000000
vn 0.000000 1.000000 0.000000
vn 0.000000 1.000000 0.000000
vn 0.000000 1.000000 0.000000
vn 0.000000 1.000000 0.000000
vn 0.000000 1.000000 0.000000
vn 0.000000 1.000000 0.000000
vn 0.000000 1.000000 0.000000
vn 0.000000 1.000000 0.000000
vn 0.000000 1.000000 0.000000
vn 0.000000 1.000000 0.000000
vn 0.000000 1.000000 0.000000
vn 0.000000 1.000000 0.000000
vn 0.000000 1.000000 0.000000
vn 0.000000 1.000000 0.000000
vn 0.000000 1.000000 0.000000
vn 0.000000 1.000000 0.000000
vn 0.000000 1.000000 0.000000
vn 0.000000 1.000000 0.000000
vn 0.000000 0.349986 -0.936755
vn 0.000000 0.349986 -0.936755
vn 0.000000 0.349986 -0.936755
vn 0.000000 0.349986 -0.936755
vn 0.000000 -0.349987 -0.936755
vn 0.000000 -0.349987 -0.936755
vn 0.000000 -0.349987 -0.936755
vn 0.000000 -0.349987 -0.936755
vn 0.000000 -0.845387 -0.534154
vn 0.000000 -0.845387 -0.534154
vn 0.000000 -0.845387 -0.534154
vn 0.000000 -0.845387 -0.534154
vn 0.000000 -1.000000 0.000000
vn 0.000000 -1.000000 0.000000
vn 0.000000 -1.000000 0.000000
vn 0.000000 -1.000000 0.000000
vn 0.000000 -0.845387 0.534155
vn 0.000000 -0.845387 0.534155
vn 0.000000 -0.845387 0.534155
vn 0.000000 -0.845387 0.534155
vn 0.000000 -0.349986 0.936755
vn 0.000000 -0.349986 0.936755
vn 0.000000 -0.349986 0.936755
vn 0.000000 -0.349986 0.936755
vn 0.000000 0.349987 0.936755
vn 0.000000 0.349987 0.936755
vn 0.000000 0.349987 0.936755
vn 0.000000 0.349987 0.936755
vn 0.000000 0.845387 0.534154
vn 0.000000 0.845387 0.534154
vn 0.000000 0.845387 0.534154
vn 0.000000 0.845387 0.534154
vn 0.000000 1.000000 0.000000
vn 0.000000 1.000000 0.000000
vn 0.000000 1.000000 0.000000
vn 0.000000 1.000000 0.000000
vn 0.000000 0.845387 -0.534154
vn 0.000000 0.845387 -0.534154
vn 0.000000 0.845387 -0.534154
vn 0.000000 0.845387 -0.534154
vn 1.000000 0.000000 0.000000
vn 1.000000 0.000000 0.000000
vn 1.000000 -0.000000 0.000000
vn 1.000000 0.000000 0.000000
vn 1.000000 0.000000 0.000000
vn 1.000000 -0.000000 0.000000
vn 1.000000 -0.000000 0.000000
vn 1.000000 0.000000 0.000000
vn 1.000000 -0.000000 0.000000
vn 1.000000 -0.000000 0.000000
vn 1.000000 -0.000000 0.000000
vn 1.000000 -0.000000 0.000000
vn 1.000000 0.000000 0.000000
vn 1.000000 -0.000000 0.000000
vn 1.000000 -0.000000 0.000000
vn 1.000000 0.000000 0.000000
vn 1.000000 0.000000 0.000000
vn 1.000000 -0.000000 0.000000
vn 1.000000 -0.000000 0.000000
vn 1.000000 0.000000 0.000000
vn 1.000000 -0.000000 0.000000
vn 1.000000 -0.000000 0.000000
vn 1.000000 -0.000000 0.000000
vn 1.000000 -0.000000 0.000000
vn 1.000000 0.000000 0.000000
vn 1.000000 -0.000000 0.000000
vn 1.000000 -0.000000 0.000000
vn 1.000000 0.000000 0.000000
vn 1.000000 0.000000 0.000000
vn 1.000000 -0.000000 0.000000
vn -1.000000 0.000000 0.000000
vn -1.000000 0.000000 0.000000
vn -1.000000 0.000000 0.000000
vn -1.000000 0.000000 0.000000
vn -1.000000 0.000000 0.000000
vn -1.000000 0.000000 0.000000
vn -1.000000 0.000000 0.000000
vn -1.000000 0.000000 0.000000
vn -1.000000 0.000000 0.000000
vn -1.000000 0.000000 0.000000
vn -1.000000 0.000000 0.000000
vn -1.000000 0.000000 0.000000
vn -1.000000 0.000000 0.000000
vn -1.000000 0.000000 0.000000
vn -1.000000 0.000000 0.000000
vn -1.000000 0.000000 0.000000
vn -1.000000 0.000000 0.000000
vn -1.000000 0.000000 0.000000
vn -1.000000 0.000000 0.000000
vn -1.000000 0.000000 0.000000
vn -1.000000 0.000000 0.000000
vn -1.000000 0.000000 0.000000
vn -1.000000 0.000000 0.000000
vn -1.000000 0.000000 0.000000
vn -1.000000 0.000000 0.000000
vn -1.000000 0.000000 0.000000
vn -1.000000 0.000000 0.000000
vn -1.000000 0.000000 0.000000
vn -1.000000 0.000000 0.000000
vn -1.000000 0.000000 0.000000
s off
g Watch
usemtl WatchMatSG
f 1/13/1 2/14/2 14/27/3 13/26/4
f 2/14/5 3/15/6 15/28/7 14/27/8
f 3/15/9 4/16/10 16/29/11 15/28/12
f 4/16/13 5/17/14 17/30/15 16/29/16
f 5/17/17 6/18/18 18/31/19 17/30/20
f 6/18/21 7/19/22 19/32/23 18/31/24
f 7/19/25 8/20/26 20/33/27 19/32/28
f 8/20/29 9/21/30 21/34/31 20/33/32
f 9/21/33 10/22/34 22/35/35 21/34/36
f 10/22/37 11/23/38 23/36/39 22/35/40
f 11/23/41 12/24/42 24/37/43 23/36/44
f 12/24/45 1/25/46 13/38/47 24/37/48
f 2/2/49 1/1/50 25/51/51
f 3/3/52 2/2/53 25/51/54
f 4/4/55 3/3/56 25/51/57
f 5/5/58 4/4/59 25/51/60
f 6/6/61 5/5/62 25/51/63
f 7/7/64 6/6/65 25/51/66
f 8/8/67 7/7/68 25/51/69
f 9/9/70 8/8/71 25/51/72
f 10/10/73 9/9/74 25/51/75
f 11/11/76 10/10/77 25/51/78
f 12/12/79 11/11/80 25/51/81
f 1/1/82 12/12/83 25/51/84
f 13/49/85 14/48/86 26/52/87
f 14/48/88 15/47/89 26/52/90
f 15/47/91 16/46/92 26/52/93
f 16/46/94 17/45/95 26/52/96
f 17/45/97 18/44/98 26/52/99
f 18/44/100 19/43/101 26/52/102
f 19/43/103 20/42/104 26/52/105
f 20/42/106 21/41/107 26/52/108
f 21/41/109 22/40/110 26/52/111
f 22/40/112 23/39/113 26/52/114
f 23/39/115 24/50/116 26/52/117
f 24/50/118 13/49/119 26/52/120
f 27/53/121 28/54/122 38/55/123 37/56/124
f 28/54/125 29/57/126 39/58/127 38/55/128
f 29/57/129 30/59/130 40/60/131 39/58/132
f 30/59/133 31/61/134 41/62/135 40/60/136
f 31/61/137 32/63/138 42/64/139 41/62/140
f 32/63/141 33/65/142 43/66/143 42/64/144
f 33/65/145 34/67/146 44/68/147 43/66/148
f 34/67/149 35/69/150 45/70/151 44/68/152
f 35/69/153 36/71/154 46/72/155 45/70/156
f 36/71/157 27/73/158 37/74/159 46/72/160
f 28/75/161 27/76/162 47/77/163
f 29/78/164 28/75/165 47/77/166
f 30/79/167 29/78/168 47/77/169
f 31/80/170 30/79/171 47/77/172
f 32/81/173 31/80/174 47/77/175
f 33/82/176 32/81/177 47/77/178
f 34/83/179 33/82/180 47/77/181
f 35/84/182 34/83/183 47/77/184
f 36/85/185 35/84/186 47/77/187
f 27/76/188 36/85/189 47/77/190
f 37/86/191 38/87/192 48/88/193
f 38/87/194 39/89/195 48/88/196
f 39/89/197 40/90/198 48/88/199
f 40/90/200 41/91/201 48/88/202
f 41/91/203 42/92/204 48/88/205
f 42/92/206 43/93/207 48/88/208
f 43/93/209 44/94/210 48/88/211
f 44/94/212 45/95/213 48/88/214
f 45/95/215 46/96/216 48/88/217
f 46/96/218 37/86/219 48/88/220
